<svg id="icon_lab" data-name="icon lab" xmlns="http://www.w3.org/2000/svg" width="74.447" height="61.531" viewBox="0 0 74.447 61.531">
  <path id="Trazado_2838" data-name="Trazado 2838" d="M935.833,1145.926a23.514,23.514,0,0,0-6.527-8.893,22.029,22.029,0,0,0-8.886-4.57,20.631,20.631,0,0,0-9.551.1,30.219,30.219,0,0,0-3.3-1.208,28.192,28.192,0,0,0-21.63,2.087c-5.461,3.033-10.252,7.852-12.028,13.962a18.128,18.128,0,0,0-.674,7.61,13.569,13.569,0,0,0-1.5,2.616,9.9,9.9,0,0,0,.006,8.368c1.625,3.612,4.8,5.7,8.409,7.025a38.094,38.094,0,0,0,17.531,1.833c.668-.082,1.336-.191,2-.3a70.452,70.452,0,0,0,8.565,1.764c4.736.723,9.555.8,14.13-.809a26.537,26.537,0,0,0,5.482-2.717,25.17,25.17,0,0,0,8.183-8.163,18.021,18.021,0,0,0,1.327-2.74,16.073,16.073,0,0,0,1.046-5.024C938.588,1153.043,937.316,1149.388,935.833,1145.926Zm-1.207,16.295a17.358,17.358,0,0,1-2.762,4.092,25.013,25.013,0,0,1-11.663,7.332c-4.34,1.188-8.83.8-13.2.01q-.842-.152-1.68-.314c-1.823-.352-3.633-.753-5.412-1.266a41.109,41.109,0,0,1-5.44.586c-1.207.047-2.419.043-3.636-.031-6.591-.4-16.068-2.087-17.577-9.833-.024-.123-.031-.16-.034-.171l0,.006c-.012-.127-.02-.256-.022-.383a8.468,8.468,0,0,1,.265-2.2,9.751,9.751,0,0,1,.69-1.855,10.406,10.406,0,0,1,.561-1.024,12.734,12.734,0,0,1,1.106-1.474,11.324,11.324,0,0,1-.427-3.1c.021-5.174,3.3-10.465,6.978-13.7a25.108,25.108,0,0,1,14.248-6.255,27.429,27.429,0,0,1,10.323,1.067,39.662,39.662,0,0,0-10.424,5.421c-1.244.922-.033,3.034,1.228,2.1a37.6,37.6,0,0,1,9.913-5.2c.99-.35,1.978-.659,2.97-.916a22.8,22.8,0,0,1,3.9-.665,16.662,16.662,0,0,1,5.633.463,20.8,20.8,0,0,1,13.631,12.4c1.379,3.319,2.521,6.81,2.13,10.455a12.887,12.887,0,0,1-.307,1.674A14.227,14.227,0,0,1,934.626,1162.221Z" transform="translate(-865.066 -1130.112)" fill="#35373b"/>
  <g id="Grupo_1623" data-name="Grupo 1623" transform="translate(-865.066 -1130.112)">
    <g id="Grupo_1622" data-name="Grupo 1622">
      <g id="Grupo_1619" data-name="Grupo 1619">
        <path id="Trazado_2839" data-name="Trazado 2839" d="M885.015,1167.646a88.046,88.046,0,0,0,9.452,5.015,41.109,41.109,0,0,0,5.44-.586,36.218,36.218,0,0,1-3.528-1.2,76.067,76.067,0,0,1-10.136-5.328c-3.48-2.058-7.74-4.105-9.667-7.872a10.572,10.572,0,0,1-.754-1.978,12.734,12.734,0,0,0-1.106,1.474,10.406,10.406,0,0,0-.561,1.024,10.951,10.951,0,0,0,.506,1.049C876.909,1163.193,881.245,1165.415,885.015,1167.646Z" fill="#7774ec"/>
      </g>
      <g id="Grupo_1620" data-name="Grupo 1620">
        <path id="Trazado_2840" data-name="Trazado 2840" d="M937.377,1161.89a18.021,18.021,0,0,1-1.327,2.74c.033.07.077.133.11.2,3.525,7.643-4.638,13.159-11.058,15.036-5.007,1.464-10.174,1.227-15.313,1.719a129.538,129.538,0,0,0-20.474,3.77c-3.658.96-7.279,2.051-10.873,3.228q.383-1.722.766-3.445c.341-1.536,1.205-3.585.819-5.166-.341-1.4-1.724-2.241-2.728-3.135a51.421,51.421,0,0,1-3.869-3.833c-2.234-2.462-4.553-5.23-5.519-8.473-.8-2.706-.492-6.158,1.9-8,1.222-.943.012-3.057-1.228-2.1a9.2,9.2,0,0,0-3.518,7.473c.009,3.391,1.66,6.532,3.641,9.188a50.5,50.5,0,0,0,7.555,8.066c.717.616,1.526,1.022,1.324,2.075-.179.937-.414,1.865-.621,2.8q-.672,3.027-1.345,6.056a1.228,1.228,0,0,0,1.5,1.5,162.482,162.482,0,0,1,26.32-6.748c3.111-.495,6.243-.855,9.387-1.055,2.52-.16,5.043-.16,7.552-.48a30.381,30.381,0,0,0,10.433-3.116c3.445-1.825,6.908-4.7,8.207-8.493C940.158,1168.35,939.215,1164.905,937.377,1161.89Z" fill="#7774ec"/>
      </g>
      <g id="Grupo_1621" data-name="Grupo 1621">
        <path id="Trazado_2841" data-name="Trazado 2841" d="M882.073,1150.992a37.267,37.267,0,0,1,17.29-3.833c8.629.03,16.8,3.141,24.523,6.746a12.925,12.925,0,0,1-1.179,4.808c-1.793,3.856-5.239,6.511-8.857,8.556a41.566,41.566,0,0,1-10.284,4.029q-1.822.462-3.659.777c1.779.513,3.589.914,5.412,1.266a40.089,40.089,0,0,0,13.284-6.254c3.545-2.624,6.452-6.153,7.357-10.565.1-.485.169-.972.224-1.458a23.926,23.926,0,0,1,8.442,7.157,14.227,14.227,0,0,0,.993-2.782,25.055,25.055,0,0,0-3.855-3.75,31.157,31.157,0,0,0-5.5-3.333,19.528,19.528,0,0,0-2.491-8.579,25.737,25.737,0,0,0-9.24-9.333,22.8,22.8,0,0,0-3.9.665,26.189,26.189,0,0,1,5.976,3.822,20.62,20.62,0,0,1,7.16,12.272c-.769-.337-1.542-.666-2.312-.99a75.85,75.85,0,0,0-12.79-4.453,42.886,42.886,0,0,0-24.584,1.668,27.7,27.7,0,0,0-8.686,5.171,11.324,11.324,0,0,0,.427,3.1A20.878,20.878,0,0,1,882.073,1150.992Z" fill="#7774ec"/>
      </g>
    </g>
  </g>
</svg>
