<svg id="icon_ig" data-name="icon ig" xmlns="http://www.w3.org/2000/svg" width="45.21" height="45.21" viewBox="0 0 45.21 45.21">
  <path id="Trazado_2771" data-name="Trazado 2771" d="M782.751,1193.632a22.6,22.6,0,1,1-22.6-22.6A22.6,22.6,0,0,1,782.751,1193.632Z" transform="translate(-737.541 -1171.027)" fill="#35373b"/>
  <g id="Grupo_1587" data-name="Grupo 1587" transform="translate(-736.417 -1169.954)">
    <g id="Grupo_1584" data-name="Grupo 1584" transform="translate(744.163 1178.376)">
      <path id="Trazado_2772" data-name="Trazado 2772" d="M764.715,1206.742H753.329a9.176,9.176,0,0,1-9.166-9.166v-10.035a9.176,9.176,0,0,1,9.166-9.166h11.387a9.176,9.176,0,0,1,9.166,9.166v10.035A9.176,9.176,0,0,1,764.715,1206.742Zm-11.387-26.329a7.137,7.137,0,0,0-7.129,7.129v10.035a7.137,7.137,0,0,0,7.129,7.129h11.387a7.137,7.137,0,0,0,7.129-7.129v-10.035a7.137,7.137,0,0,0-7.129-7.129Z" transform="translate(-744.163 -1178.376)" fill="#fff"/>
    </g>
    <g id="Grupo_1585" data-name="Grupo 1585" transform="translate(750.863 1184.4)">
      <path id="Trazado_2773" data-name="Trazado 2773" d="M759.529,1201.173a8.159,8.159,0,1,1,8.159-8.159A8.168,8.168,0,0,1,759.529,1201.173Zm0-14.281a6.122,6.122,0,1,0,6.122,6.122A6.129,6.129,0,0,0,759.529,1186.893Z" transform="translate(-751.37 -1184.856)" fill="#fff"/>
    </g>
    <g id="Grupo_1586" data-name="Grupo 1586" transform="translate(765.362 1182.958)">
      <path id="Trazado_2774" data-name="Trazado 2774" d="M770.352,1185a1.693,1.693,0,1,1-1.693-1.694A1.692,1.692,0,0,1,770.352,1185Z" transform="translate(-766.966 -1183.305)" fill="#fff"/>
    </g>
  </g>
</svg>
