<svg xmlns="http://www.w3.org/2000/svg" width="75.575" height="56.089" viewBox="0 0 75.575 56.089">
  <g id="icon_product" data-name="icon product" transform="translate(0.615)">
    <path id="Unión_1" data-name="Unión 1" d="M-2269.617,263.9a3.575,3.575,0,0,1-.615-4.425,4.133,4.133,0,0,1,1.211-1.289c-1.152-4.716,4.165-8.678,8.494-8.883,2.877-.137,5.688.74,8.422,1.515a25.012,25.012,0,0,0,8.321,1.165c5.2-.291,10.064-2.6,14.354-5.426a90.528,90.528,0,0,0,12.619-10.563q6.706-6.439,13.406-12.881a3.569,3.569,0,0,1,.088-3.5,4.028,4.028,0,0,1,4.288-1.907,1.076,1.076,0,0,1,.66.461q.124.063.244.137a3.7,3.7,0,0,1,1.7,2.256,3.852,3.852,0,0,1-1.918,4.249,3.763,3.763,0,0,1-3.286-.032c-4.837,4.651-9.654,9.322-14.517,13.945-7.081,6.73-15.371,13.984-25.4,15.458a23.316,23.316,0,0,1-7.271-.067c-2.817-.47-5.492-1.53-8.29-2.086-2.53-.5-5.069-.471-7.235,1.079a4.758,4.758,0,0,0-2.31,4.371,3.742,3.742,0,0,1,.7.09,1.075,1.075,0,0,1,.658.461q.124.064.244.137a3.708,3.708,0,0,1,1.7,2.256,3.853,3.853,0,0,1-1.918,4.249,3.61,3.61,0,0,1-1.584.363A4.07,4.07,0,0,1-2269.617,263.9Zm2.688-1.276-.038-.012c.1,0,.189,0,.284,0,.04-.008.079-.017.118-.027s.058-.017.086-.026c.085-.059.2-.105.289-.159l.031-.029c.032-.031.065-.061.1-.094s.071-.091.111-.129c.055-.085.1-.173.151-.263,0,.012,0,.024-.006.037a.316.316,0,0,1,.011-.047l.032-.06c.021-.039.024-.066.018-.07l0-.012c.024-.075.043-.15.06-.227,0-.1.017-.205.015-.3,0-.065-.017-.134-.014-.2,0,.023,0,.044,0,.062h0c-.019-.088-.064-.18-.087-.269-.011-.021-.023-.043-.036-.064-.027-.049-.059-.1-.089-.142s-.056-.065-.085-.095-.086-.086-.131-.126c-.09-.037-.183-.127-.27-.175l-.059-.032c-.05-.016-.1-.043-.15-.057-.094-.029-.212-.034-.305-.069-.057,0-.114,0-.171,0l-.057,0a.384.384,0,0,0-.079.008.412.412,0,0,1-.065,0l.047,0a1.442,1.442,0,0,1-.256.031l-.024.014c-.072.042-.139.089-.208.134-.093.085-.186.169-.271.263l-.035.038c-.032.047-.065.093-.094.142s-.063.111-.094.168c0-.014.007-.029.01-.046,0,.016-.007.032-.011.048l-.032.061c-.038.07-.022.111.007.03-.027.089-.059.178-.083.267,0,.035,0,.071,0,.107s0,.1.006.144c.025.092.058.184.079.275.024.046.049.09.075.134s.054.083.081.124c.06.065.119.132.184.192.033.032.068.062.1.093.1.063.192.125.294.18l.012.006a.444.444,0,0,0,.088.043l.022.008a.484.484,0,0,1,.042.024l-.033-.021c.077.027.156.05.236.07a.361.361,0,0,0,.117.027l.036,0Zm1.268-1.241c0-.013,0-.026.006-.04ZM-2266.1,260.375Zm-.3-.2Zm-.325-.123Zm-.13-.153s0,0,0-.005c-.045,0-.091.009-.135.011l-.011,0A.451.451,0,0,0-2266.857,259.9Zm66.843-37.139-.038-.012c.1,0,.189,0,.285,0,.04-.008.079-.017.119-.027s.056-.016.083-.025c.087-.06.2-.107.292-.161l.028-.027c.032-.031.065-.061.1-.094s.071-.091.11-.128c.056-.084.1-.172.151-.261,0,.011,0,.023-.006.035a.353.353,0,0,1,.012-.046l.032-.061c.02-.038.024-.065.019-.07l0-.012c.023-.076.043-.153.06-.23,0-.1.016-.2.014-.3,0-.026,0-.052-.006-.078,0-.006,0-.011,0-.017a.747.747,0,0,1-.007-.1c0,.022,0,.042,0,.059-.02-.088-.065-.179-.088-.268l-.034-.062c-.027-.049-.058-.094-.088-.14s-.057-.066-.087-.1-.087-.085-.131-.125a3.036,3.036,0,0,1-.269-.174l-.063-.033c-.049-.016-.1-.042-.146-.056-.1-.028-.214-.034-.306-.069-.057,0-.114,0-.17,0-.021,0-.043,0-.065.005a.428.428,0,0,0-.069.007.417.417,0,0,1-.069,0l.048,0a1.44,1.44,0,0,1-.257.031l-.024.014c-.071.042-.139.089-.208.134-.093.085-.186.169-.27.263l-.035.037c-.032.047-.066.094-.095.143s-.063.111-.093.167c0-.014.006-.029.01-.045,0,.016-.007.031-.01.047l-.034.062c-.037.069-.022.11.007.033-.027.087-.059.175-.082.263,0,.036,0,.071,0,.108s0,.1.005.146c.025.091.057.183.079.274.023.046.048.09.074.134s.052.08.078.12c.061.067.121.134.187.2.034.032.068.061.1.092.1.064.193.126.3.181l.012.006a.44.44,0,0,0,.088.043l.022.008.032.018-.023-.014q.116.04.236.07a.365.365,0,0,0,.118.028l.034,0Zm-.4-.091ZM-2199.182,220.514Zm-.3-.2Zm-.325-.123Zm-.131-.153s0,0,0-.005c-.045,0-.091.009-.135.011l-.011,0A.45.45,0,0,0-2199.94,220.037Zm-67.04,42.571c-.043-.009-.088-.014-.128-.024l-.024-.006c-.025-.013.007-.017.164.03Zm-.4-.1c-.036-.018-.074-.033-.11-.051s-.042-.045.119.054Zm1.628-.764c-.013.041-.036.087-.05.131l0,.01C-2265.784,261.774-2265.758,261.736-2265.749,261.742Zm.062-.677a.308.308,0,0,1,.007.138A.42.42,0,0,1-2265.687,261.065Zm-2.522-.223v0a.752.752,0,0,1-.026.093C-2268.225,260.9-2268.216,260.872-2268.209,260.842Zm.984-.791.008,0,.01,0,.079-.008c.027,0,.044,0,.044.008s-.018.007-.061.007Zm67.162-37.3c-.042-.009-.087-.014-.128-.024l-.024-.006c-.025-.013.008-.016.164.03Zm-.4-.1c-.036-.018-.074-.033-.11-.051s-.043-.045.118.054Zm1.628-.763c-.014.041-.036.087-.051.131l-.006.012C-2198.867,221.912-2198.84,221.874-2198.832,221.882Zm.061-.681v0a.369.369,0,0,1,.008.041l0,.017a.182.182,0,0,1,0,.08A.409.409,0,0,1-2198.771,221.2Zm-2.521-.221v0a.713.713,0,0,1-.027.1Q-2201.3,221.027-2201.292,220.98Zm.984-.791.007,0,.013,0,.069-.007c.031,0,.052,0,.052.007s-.018.007-.06.007Z" transform="translate(2270.735 -216.385)" fill="#35373b" stroke="rgba(0,0,0,0)" stroke-width="1"/>
    <path id="Trazado_2843" data-name="Trazado 2843" d="M1019.015,1135.826l5.115,5.432a1.226,1.226,0,0,0,1.72,0,1.241,1.241,0,0,0,0-1.72l-5.115-5.432a1.227,1.227,0,0,0-1.72,0,1.242,1.242,0,0,0,0,1.72Z" transform="translate(-992.264 -1123.567)" fill="#33c5b6"/>
    <path id="Trazado_2844" data-name="Trazado 2844" d="M1027.042,1131.316l-8.027,8.97a1.244,1.244,0,0,0,0,1.72,1.229,1.229,0,0,0,1.72,0l8.027-8.969a1.245,1.245,0,0,0,0-1.721,1.229,1.229,0,0,0-1.72,0Z" transform="translate(-992.264 -1123.567)" fill="#33c5b6"/>
    <path id="Trazado_2847" data-name="Trazado 2847" d="M1014.821,1145.553a82.219,82.219,0,0,1,2.585-20.446l-1.172.893,34.738.469a1.217,1.217,0,0,0,0-2.433l-34.738-.469a1.235,1.235,0,0,0-1.173.893,84.944,84.944,0,0,0-2.672,21.093,1.217,1.217,0,0,0,2.432,0Z" transform="translate(-992.264 -1123.567)" fill="#33c5b6"/>
    <path id="Trazado_2848" data-name="Trazado 2848" d="M1057.2,1141.62l-6.266,28.716c-.263,1.2-.505,2.418-.789,3.619-.1.436-.14.877-.609,1.032a3.888,3.888,0,0,1-1.591-.134c-2.268-.329-4.547-.577-6.833-.728a84.877,84.877,0,0,0-13.779.216,87.394,87.394,0,0,0-15.462,2.926l1.54,1.173a131.794,131.794,0,0,0-.578-18.133c-.156-1.543-2.59-1.559-2.433,0a131.794,131.794,0,0,1,.578,18.133,1.227,1.227,0,0,0,1.54,1.173,84.284,84.284,0,0,1,29.294-3.007c2.355.175,4.676.592,7.023.806,2.011.183,3.2-.925,3.655-2.81,1.2-5.041,2.212-10.138,3.317-15.2l3.739-17.133c.333-1.526-2.012-2.178-2.346-.647Z" transform="translate(-992.264 -1123.567)" fill="#33c5b6"/>
  </g>
</svg>
