<svg xmlns="http://www.w3.org/2000/svg" width="67.833" height="61.192" viewBox="0 0 67.833 61.192">
  <g id="icon_estrategia" data-name="icon estrategia" transform="translate(0.52)">
    <g id="Grupo_1626" data-name="Grupo 1626" transform="translate(7.555)">
      <path id="Trazado_2849" data-name="Trazado 2849" d="M1129.136,1171.41a22.788,22.788,0,0,0,17.275.817,21.8,21.8,0,0,0,11.214-10.13,24.829,24.829,0,0,0,2.956-14.342,23.8,23.8,0,0,0-6.267-13.331,21.249,21.249,0,0,0-8.241-5.719c-5.325-1.947-10.943-.656-15.743,2.028-7.707,4.307-14.168,11.288-14.354,20.568A22.777,22.777,0,0,0,1129.136,1171.41Zm.977-37.342c3.172-1.929,6.591-3.536,10.382-3.551a14.145,14.145,0,0,1,7.69,2.312c.351.224.693.462,1.031.706.079.056.566.424.606.452.05.043.611.511.824.7a20.912,20.912,0,0,1,6.1,22.53,20.641,20.641,0,0,1-8.012,10.743,18.9,18.9,0,0,1-14.846,2.2,18.637,18.637,0,0,1-9.832-5.867,19.331,19.331,0,0,1-5.3-12.99C1118.9,1143.786,1123.945,1137.818,1130.114,1134.068Z" transform="translate(-1107.923 -1120.425)" fill="#f75794"/>
      <path id="Trazado_2850" data-name="Trazado 2850" d="M1168.637,1149.766c-.472-9.713-6.02-18.778-13.929-24.293a22.894,22.894,0,0,0-20.335-2.991,41.54,41.54,0,0,0-10.581,5.453,37.55,37.55,0,0,0-11.031,11.32,26.852,26.852,0,0,0-2.657,21.755c.52,1.7,3.2.976,2.675-.738a23.944,23.944,0,0,1,1.608-18.255,32.562,32.562,0,0,1,8.981-10.36c7.3-5.655,16.984-10.014,26.072-6a23.311,23.311,0,0,1,8.054,5.8,29.991,29.991,0,0,1,7.549,13.029c2.872,10.823-1.563,23.595-10.474,30.368a25.572,25.572,0,0,1-19.788,4.5,27.743,27.743,0,0,1-17.537-10.648c-1.075-1.394-3.486-.014-2.4,1.4a30.81,30.81,0,0,0,16.06,11.206,29.738,29.738,0,0,0,20.863-1.5C1162.735,1174.53,1169.217,1161.692,1168.637,1149.766Z" transform="translate(-1108.915 -1121.329)" fill="#f75794"/>
    </g>
    <path id="Unión_2" data-name="Unión 2" d="M-3670.4-874.868a235.826,235.826,0,0,1,37.4-22.52,1.42,1.42,0,0,1,.8-.141l-1.174-1.38q-4.177,1.944-8.274,4.053c-1.586.815-2.988-1.579-1.4-2.4q8.212-4.22,16.733-7.783c1.182-.5,2.779-.988,3.506.506.6,1.237-.311,2.754-.749,3.909-.948,2.5-1.979,5.194-1.114,7.862a1.4,1.4,0,0,1-2.318,1.349l-3.905-4.588a1.148,1.148,0,0,1-.71,1,235.837,235.837,0,0,0-37.4,22.52,1.23,1.23,0,0,1-.732.264A1.486,1.486,0,0,1-3670.4-874.868Zm42.748-21.59a14.664,14.664,0,0,1,.339-1.662,29.827,29.827,0,0,1,.97-2.929c.147-.392.3-.782.447-1.173l-.477.2q-1.132.481-2.26.975-1.064.466-2.123.943Z" transform="translate(3671 925.865)" fill="#35373b" stroke="rgba(0,0,0,0)" stroke-width="1"/>
  </g>
</svg>
