<svg xmlns="http://www.w3.org/2000/svg" width="22.537" height="30.171" viewBox="0 0 22.537 30.171">
  <g id="Grupo_1618" data-name="Grupo 1618" transform="translate(-199.27 -905.584)">
    <path id="Trazado_2836" data-name="Trazado 2836" d="M204.772,914.671a3.847,3.847,0,0,1,4.333,0c-.007-.087-.012-.175-.012-.264,0-1.592,1.551-3.1,3.96-3.1,3.511,0,4.614,2.286,4.818,3.634l5.8-1.633c-.613-3.389-3.348-7.716-10.574-7.716-5.553,0-10.37,3.838-10.37,9.308a8.4,8.4,0,0,0,.393,2.577A3.838,3.838,0,0,1,204.772,914.671Z" transform="translate(-2.392)" fill="#6868ea"/>
    <path id="Trazado_2837" data-name="Trazado 2837" d="M213.437,938.228l-3.879-.735a3.765,3.765,0,0,1-2.311-1.155l0,0-.007-.011A3.252,3.252,0,1,0,201.864,940l.014.018-.008.006a9.985,9.985,0,0,0,6.342,3.678l3.96.735c1.919.367,3.1,1.429,3.1,2.9,0,1.8-1.551,3.021-4.083,3.021-3.96,0-5.757-2.327-6-4.981l-5.92,1.429c.408,4.083,3.838,9.268,11.84,9.268,6.9,0,10.7-4.613,10.7-9.145C221.807,942.8,218.949,939.248,213.437,938.228Z" transform="translate(0 -20.314)" fill="#6868ea"/>
  </g>
</svg>
