<svg id="logo_sein" data-name="logo sein" xmlns="http://www.w3.org/2000/svg" width="74.926" height="31.983" viewBox="0 0 74.926 31.983">
  <g id="Grupo_1596" data-name="Grupo 1596">
    <path id="Trazado_2779" data-name="Trazado 2779" d="M164.991,106.309c-.876,3.139-3.759,5.766-8.358,5.766a9.626,9.626,0,0,1-.4-19.234c5.621,0,9.088,3.468,9.088,9.307a11.6,11.6,0,0,1-.109,1.716H152.582a3.926,3.926,0,0,0,4.124,3.5,3.5,3.5,0,0,0,3.65-2.372Zm-5.037-6.022c-.073-1.387-1.022-3.066-3.65-3.066a3.455,3.455,0,0,0-3.613,3.066Z" transform="translate(-121.118 -80.092)" fill="#35373b"/>
    <path id="Trazado_2780" data-name="Trazado 2780" d="M196.576,74.908a3.249,3.249,0,1,1-3.212,3.248A3.263,3.263,0,0,1,196.576,74.908Zm-2.738,26.935V83.7h5.548v18.139Z" transform="translate(-146.059 -70.407)" fill="#35373b"/>
    <path id="Trazado_2781" data-name="Trazado 2781" d="M221.908,111.614h-5.547V93.474h5.365v2.08A5.946,5.946,0,0,1,226.8,93c4.562,0,6.606,3.248,6.606,7.226v11.387h-5.547V101.176a2.81,2.81,0,0,0-2.956-3.139,2.943,2.943,0,0,0-2.993,3.175Z" transform="translate(-158.479 -80.178)" fill="#35373b"/>
    <path id="Trazado_2782" data-name="Trazado 2782" d="M94.861,74.287a4.25,4.25,0,0,1,4.63-.11c.041-1.622,1.633-3.144,4.091-3.144,3.631,0,4.771,2.364,4.982,3.757L114.56,73.1c-.633-3.5-3.462-7.979-10.934-7.979-5.742,0-10.723,3.968-10.723,9.626a8.847,8.847,0,0,0,.232,2.034A4.238,4.238,0,0,1,94.861,74.287Z" transform="translate(-91.805 -65.123)" fill="#35373b"/>
    <path id="Trazado_2783" data-name="Trazado 2783" d="M105.165,88.816l-4.011-.76a3.894,3.894,0,0,1-2.39-1.194l0,0-.007-.011A3.363,3.363,0,1,0,93.2,90.647l.014.018-.008.006a10.325,10.325,0,0,0,6.557,3.8l4.095.76c1.985.38,3.209,1.477,3.209,3,0,1.857-1.6,3.124-4.222,3.124-4.095,0-5.953-2.406-6.206-5.15l-6.121,1.478c.422,4.221,3.968,9.583,12.243,9.583,7.135,0,11.061-4.771,11.061-9.457C113.82,93.545,110.865,89.872,105.165,88.816Z" transform="translate(-90.516 -76.067)" fill="#35373b"/>
  </g>
</svg>
